<svg width="235" height="31" viewBox="0 0 235 31" fill="none" xmlns="http://www.w3.org/2000/svg">
<path d="M17.3711 20.3711H24.207C24.1159 22.3503 23.582 24.0951 22.6055 25.6055C21.6289 27.1159 20.2747 28.2943 18.543 29.1406C16.8242 29.974 14.793 30.3906 12.4492 30.3906C10.5482 30.3906 8.84896 30.0716 7.35156 29.4336C5.86719 28.7956 4.60417 27.8776 3.5625 26.6797C2.53385 25.4818 1.74609 24.0299 1.19922 22.3242C0.665365 20.6185 0.398438 18.6979 0.398438 16.5625V15.0195C0.398438 12.8841 0.678385 10.9635 1.23828 9.25781C1.8112 7.53906 2.61849 6.08073 3.66016 4.88281C4.71484 3.67188 5.97786 2.7474 7.44922 2.10938C8.92057 1.47135 10.5547 1.15234 12.3516 1.15234C14.8255 1.15234 16.9154 1.59505 18.6211 2.48047C20.3268 3.36589 21.6484 4.58333 22.5859 6.13281C23.5234 7.66927 24.0768 9.42057 24.2461 11.3867H17.4102C17.3841 10.319 17.2018 9.42708 16.8633 8.71094C16.5247 7.98177 15.9909 7.4349 15.2617 7.07031C14.5326 6.70573 13.5625 6.52344 12.3516 6.52344C11.5052 6.52344 10.7695 6.67969 10.1445 6.99219C9.51953 7.30469 8.9987 7.79948 8.58203 8.47656C8.16536 9.15365 7.85286 10.0326 7.64453 11.1133C7.44922 12.181 7.35156 13.4701 7.35156 14.9805V16.5625C7.35156 18.0729 7.44271 19.362 7.625 20.4297C7.80729 21.4974 8.10026 22.3698 8.50391 23.0469C8.90755 23.724 9.42839 24.2253 10.0664 24.5508C10.7174 24.8633 11.5117 25.0195 12.4492 25.0195C13.4909 25.0195 14.3698 24.8568 15.0859 24.5312C15.8021 24.1927 16.3555 23.6849 16.7461 23.0078C17.1367 22.3177 17.3451 21.4388 17.3711 20.3711ZM38.1133 24.6875V15.9766C38.1133 15.3776 38.0286 14.8633 37.8594 14.4336C37.6901 14.0039 37.4232 13.6719 37.0586 13.4375C36.694 13.1901 36.2057 13.0664 35.5938 13.0664C35.099 13.0664 34.6758 13.151 34.3242 13.3203C33.9727 13.4896 33.7057 13.7435 33.5234 14.082C33.3411 14.4206 33.25 14.8503 33.25 15.3711H26.668C26.668 14.3945 26.8828 13.4896 27.3125 12.6562C27.7552 11.8099 28.3802 11.0742 29.1875 10.4492C30.0078 9.82422 30.9844 9.34245 32.1172 9.00391C33.263 8.65234 34.5391 8.47656 35.9453 8.47656C37.625 8.47656 39.1224 8.75651 40.4375 9.31641C41.7656 9.8763 42.8138 10.7161 43.582 11.8359C44.3503 12.9427 44.7344 14.3359 44.7344 16.0156V24.668C44.7344 26.0482 44.8125 27.0964 44.9688 27.8125C45.125 28.5156 45.3464 29.1341 45.6328 29.668V30H39.0312C38.7188 29.349 38.4844 28.5547 38.3281 27.6172C38.1849 26.6667 38.1133 25.6901 38.1133 24.6875ZM38.9141 17.0898L38.9531 20.6055H36.043C35.431 20.6055 34.9102 20.6901 34.4805 20.8594C34.0638 21.0286 33.7253 21.263 33.4648 21.5625C33.2174 21.849 33.0352 22.1745 32.918 22.5391C32.8138 22.9036 32.7617 23.2878 32.7617 23.6914C32.7617 24.082 32.8529 24.4336 33.0352 24.7461C33.2305 25.0456 33.4909 25.2799 33.8164 25.4492C34.1419 25.6185 34.5065 25.7031 34.9102 25.7031C35.6393 25.7031 36.2578 25.5664 36.7656 25.293C37.2865 25.0065 37.6836 24.6615 37.957 24.2578C38.2305 23.8542 38.3672 23.4766 38.3672 23.125L39.8125 25.8203C39.5521 26.3411 39.2526 26.8685 38.9141 27.4023C38.5885 27.9362 38.1784 28.431 37.6836 28.8867C37.2018 29.3294 36.6094 29.694 35.9062 29.9805C35.2031 30.2539 34.3503 30.3906 33.3477 30.3906C32.0456 30.3906 30.8477 30.1237 29.7539 29.5898C28.6732 29.056 27.8073 28.3138 27.1562 27.3633C26.5052 26.3997 26.1797 25.293 26.1797 24.043C26.1797 22.9492 26.375 21.9727 26.7656 21.1133C27.1693 20.2539 27.7747 19.5247 28.582 18.9258C29.3893 18.3268 30.418 17.8711 31.668 17.5586C32.918 17.2461 34.3893 17.0898 36.082 17.0898H38.9141ZM55.0273 14.1016V30H48.4453V8.86719H54.5977L55.0273 14.1016ZM61.2773 8.71094L61.1602 14.8242C60.8997 14.7982 60.5482 14.7656 60.1055 14.7266C59.6628 14.6875 59.2917 14.668 58.9922 14.668C58.224 14.668 57.5599 14.7591 57 14.9414C56.4531 15.1107 55.9974 15.3711 55.6328 15.7227C55.2812 16.0612 55.0208 16.4909 54.8516 17.0117C54.6953 17.5326 54.6237 18.138 54.6367 18.8281L53.4453 18.0469C53.4453 16.6276 53.582 15.3385 53.8555 14.1797C54.1419 13.0078 54.5456 11.9987 55.0664 11.1523C55.5872 10.293 56.2188 9.63542 56.9609 9.17969C57.7031 8.71094 58.5365 8.47656 59.4609 8.47656C59.7865 8.47656 60.1055 8.49609 60.418 8.53516C60.7435 8.57422 61.0299 8.63281 61.2773 8.71094ZM73.3867 30.3906C71.668 30.3906 70.1315 30.1237 68.7773 29.5898C67.4232 29.043 66.2773 28.2943 65.3398 27.3438C64.4154 26.3932 63.7057 25.2995 63.2109 24.0625C62.7292 22.8255 62.4883 21.5169 62.4883 20.1367V19.3945C62.4883 17.8451 62.7031 16.4128 63.1328 15.0977C63.5625 13.7695 64.2005 12.6107 65.0469 11.6211C65.8932 10.6315 66.9544 9.86328 68.2305 9.31641C69.5065 8.75651 70.9909 8.47656 72.6836 8.47656C74.181 8.47656 75.5221 8.71745 76.707 9.19922C77.8919 9.68099 78.8945 10.3711 79.7148 11.2695C80.5482 12.168 81.1797 13.2552 81.6094 14.5312C82.0521 15.8073 82.2734 17.2396 82.2734 18.8281V21.5039H65.0078V17.3828H75.8477V16.875C75.8607 16.1719 75.737 15.5729 75.4766 15.0781C75.2292 14.5833 74.8646 14.2057 74.3828 13.9453C73.901 13.6849 73.3151 13.5547 72.625 13.5547C71.9089 13.5547 71.3164 13.7109 70.8477 14.0234C70.3919 14.3359 70.0339 14.7656 69.7734 15.3125C69.526 15.8464 69.3503 16.4648 69.2461 17.168C69.1419 17.8711 69.0898 18.6133 69.0898 19.3945V20.1367C69.0898 20.918 69.194 21.6276 69.4023 22.2656C69.6237 22.9036 69.9362 23.4505 70.3398 23.9062C70.7565 24.349 71.2513 24.694 71.8242 24.9414C72.4102 25.1888 73.0742 25.3125 73.8164 25.3125C74.7148 25.3125 75.6003 25.1432 76.4727 24.8047C77.3451 24.4661 78.0938 23.9062 78.7188 23.125L81.707 26.6797C81.2773 27.2917 80.6654 27.8841 79.8711 28.457C79.0898 29.0299 78.1523 29.4987 77.0586 29.8633C75.9648 30.2148 74.7409 30.3906 73.3867 30.3906ZM95.1836 30.3906C93.4648 30.3906 91.9284 30.1237 90.5742 29.5898C89.2201 29.043 88.0742 28.2943 87.1367 27.3438C86.2122 26.3932 85.5026 25.2995 85.0078 24.0625C84.526 22.8255 84.2852 21.5169 84.2852 20.1367V19.3945C84.2852 17.8451 84.5 16.4128 84.9297 15.0977C85.3594 13.7695 85.9974 12.6107 86.8438 11.6211C87.6901 10.6315 88.7513 9.86328 90.0273 9.31641C91.3034 8.75651 92.7878 8.47656 94.4805 8.47656C95.9779 8.47656 97.319 8.71745 98.5039 9.19922C99.6888 9.68099 100.691 10.3711 101.512 11.2695C102.345 12.168 102.977 13.2552 103.406 14.5312C103.849 15.8073 104.07 17.2396 104.07 18.8281V21.5039H86.8047V17.3828H97.6445V16.875C97.6576 16.1719 97.5339 15.5729 97.2734 15.0781C97.026 14.5833 96.6615 14.2057 96.1797 13.9453C95.6979 13.6849 95.112 13.5547 94.4219 13.5547C93.7057 13.5547 93.1133 13.7109 92.6445 14.0234C92.1888 14.3359 91.8307 14.7656 91.5703 15.3125C91.3229 15.8464 91.1471 16.4648 91.043 17.168C90.9388 17.8711 90.8867 18.6133 90.8867 19.3945V20.1367C90.8867 20.918 90.9909 21.6276 91.1992 22.2656C91.4206 22.9036 91.7331 23.4505 92.1367 23.9062C92.5534 24.349 93.0482 24.694 93.6211 24.9414C94.207 25.1888 94.8711 25.3125 95.6133 25.3125C96.5117 25.3125 97.3971 25.1432 98.2695 24.8047C99.1419 24.4661 99.8906 23.9062 100.516 23.125L103.504 26.6797C103.074 27.2917 102.462 27.8841 101.668 28.457C100.887 29.0299 99.9492 29.4987 98.8555 29.8633C97.7617 30.2148 96.5378 30.3906 95.1836 30.3906ZM113.387 14.1016V30H106.805V8.86719H112.957L113.387 14.1016ZM119.637 8.71094L119.52 14.8242C119.259 14.7982 118.908 14.7656 118.465 14.7266C118.022 14.6875 117.651 14.668 117.352 14.668C116.583 14.668 115.919 14.7591 115.359 14.9414C114.812 15.1107 114.357 15.3711 113.992 15.7227C113.641 16.0612 113.38 16.4909 113.211 17.0117C113.055 17.5326 112.983 18.138 112.996 18.8281L111.805 18.0469C111.805 16.6276 111.941 15.3385 112.215 14.1797C112.501 13.0078 112.905 11.9987 113.426 11.1523C113.947 10.293 114.578 9.63542 115.32 9.17969C116.062 8.71094 116.896 8.47656 117.82 8.47656C118.146 8.47656 118.465 8.49609 118.777 8.53516C119.103 8.57422 119.389 8.63281 119.637 8.71094Z" fill="#FDFDFD"/>
<path d="M129.07 1.5625V30H122.215V1.5625H129.07ZM140.125 13.3984V18.6719H127.117V13.3984H140.125ZM141.238 1.5625V6.85547H127.117V1.5625H141.238ZM150.73 8.86719V30H144.129V8.86719H150.73ZM143.738 3.41797C143.738 2.48047 144.077 1.71224 144.754 1.11328C145.431 0.514323 146.31 0.214844 147.391 0.214844C148.471 0.214844 149.35 0.514323 150.027 1.11328C150.704 1.71224 151.043 2.48047 151.043 3.41797C151.043 4.35547 150.704 5.1237 150.027 5.72266C149.35 6.32161 148.471 6.62109 147.391 6.62109C146.31 6.62109 145.431 6.32161 144.754 5.72266C144.077 5.1237 143.738 4.35547 143.738 3.41797ZM161.258 13.3789V30H154.676V8.86719H160.848L161.258 13.3789ZM160.477 18.7109L158.934 18.75C158.934 17.1354 159.129 15.6966 159.52 14.4336C159.91 13.1576 160.464 12.0768 161.18 11.1914C161.896 10.306 162.749 9.63542 163.738 9.17969C164.741 8.71094 165.854 8.47656 167.078 8.47656C168.055 8.47656 168.947 8.61979 169.754 8.90625C170.574 9.19271 171.277 9.65495 171.863 10.293C172.462 10.931 172.918 11.7773 173.23 12.832C173.556 13.8737 173.719 15.1628 173.719 16.6992V30H167.098V16.6797C167.098 15.8333 166.98 15.1888 166.746 14.7461C166.512 14.2904 166.173 13.9779 165.73 13.8086C165.288 13.6393 164.747 13.5547 164.109 13.5547C163.432 13.5547 162.859 13.6849 162.391 13.9453C161.922 14.2057 161.544 14.5703 161.258 15.0391C160.984 15.4948 160.783 16.0352 160.652 16.6602C160.535 17.2852 160.477 17.9688 160.477 18.7109ZM189.52 25.1562V0H196.141V30H190.203L189.52 25.1562ZM176.551 19.6875V19.2773C176.551 17.6758 176.727 16.2174 177.078 14.9023C177.43 13.5742 177.951 12.4349 178.641 11.4844C179.331 10.5208 180.19 9.77865 181.219 9.25781C182.247 8.73698 183.432 8.47656 184.773 8.47656C185.971 8.47656 187.02 8.75651 187.918 9.31641C188.816 9.86328 189.585 10.6315 190.223 11.6211C190.861 12.6107 191.382 13.7695 191.785 15.0977C192.189 16.4128 192.495 17.832 192.703 19.3555V19.8438C192.495 21.276 192.189 22.6302 191.785 23.9062C191.382 25.1693 190.861 26.2891 190.223 27.2656C189.585 28.2422 188.81 29.0104 187.898 29.5703C187 30.1172 185.945 30.3906 184.734 30.3906C183.393 30.3906 182.208 30.1237 181.18 29.5898C180.164 29.056 179.311 28.3073 178.621 27.3438C177.944 26.3802 177.43 25.2474 177.078 23.9453C176.727 22.6432 176.551 21.224 176.551 19.6875ZM183.133 19.2773V19.6875C183.133 20.4818 183.185 21.2174 183.289 21.8945C183.393 22.5716 183.569 23.1706 183.816 23.6914C184.077 24.1992 184.415 24.5964 184.832 24.8828C185.262 25.1693 185.789 25.3125 186.414 25.3125C187.26 25.3125 187.957 25.1107 188.504 24.707C189.064 24.3034 189.474 23.7305 189.734 22.9883C190.008 22.2461 190.125 21.3737 190.086 20.3711V18.8281C190.112 17.9688 190.053 17.2135 189.91 16.5625C189.767 15.8984 189.539 15.3451 189.227 14.9023C188.927 14.4596 188.543 14.1276 188.074 13.9062C187.618 13.6719 187.078 13.5547 186.453 13.5547C185.841 13.5547 185.32 13.6979 184.891 13.9844C184.474 14.2708 184.135 14.6745 183.875 15.1953C183.615 15.7031 183.426 16.3086 183.309 17.0117C183.191 17.7018 183.133 18.457 183.133 19.2773ZM210.105 30.3906C208.387 30.3906 206.85 30.1237 205.496 29.5898C204.142 29.043 202.996 28.2943 202.059 27.3438C201.134 26.3932 200.424 25.2995 199.93 24.0625C199.448 22.8255 199.207 21.5169 199.207 20.1367V19.3945C199.207 17.8451 199.422 16.4128 199.852 15.0977C200.281 13.7695 200.919 12.6107 201.766 11.6211C202.612 10.6315 203.673 9.86328 204.949 9.31641C206.225 8.75651 207.71 8.47656 209.402 8.47656C210.9 8.47656 212.241 8.71745 213.426 9.19922C214.611 9.68099 215.613 10.3711 216.434 11.2695C217.267 12.168 217.898 13.2552 218.328 14.5312C218.771 15.8073 218.992 17.2396 218.992 18.8281V21.5039H201.727V17.3828H212.566V16.875C212.579 16.1719 212.456 15.5729 212.195 15.0781C211.948 14.5833 211.583 14.2057 211.102 13.9453C210.62 13.6849 210.034 13.5547 209.344 13.5547C208.628 13.5547 208.035 13.7109 207.566 14.0234C207.111 14.3359 206.753 14.7656 206.492 15.3125C206.245 15.8464 206.069 16.4648 205.965 17.168C205.861 17.8711 205.809 18.6133 205.809 19.3945V20.1367C205.809 20.918 205.913 21.6276 206.121 22.2656C206.342 22.9036 206.655 23.4505 207.059 23.9062C207.475 24.349 207.97 24.694 208.543 24.9414C209.129 25.1888 209.793 25.3125 210.535 25.3125C211.434 25.3125 212.319 25.1432 213.191 24.8047C214.064 24.4661 214.812 23.9062 215.438 23.125L218.426 26.6797C217.996 27.2917 217.384 27.8841 216.59 28.457C215.809 29.0299 214.871 29.4987 213.777 29.8633C212.684 30.2148 211.46 30.3906 210.105 30.3906ZM228.309 14.1016V30H221.727V8.86719H227.879L228.309 14.1016ZM234.559 8.71094L234.441 14.8242C234.181 14.7982 233.829 14.7656 233.387 14.7266C232.944 14.6875 232.573 14.668 232.273 14.668C231.505 14.668 230.841 14.7591 230.281 14.9414C229.734 15.1107 229.279 15.3711 228.914 15.7227C228.562 16.0612 228.302 16.4909 228.133 17.0117C227.977 17.5326 227.905 18.138 227.918 18.8281L226.727 18.0469C226.727 16.6276 226.863 15.3385 227.137 14.1797C227.423 13.0078 227.827 11.9987 228.348 11.1523C228.868 10.293 229.5 9.63542 230.242 9.17969C230.984 8.71094 231.818 8.47656 232.742 8.47656C233.068 8.47656 233.387 8.49609 233.699 8.53516C234.025 8.57422 234.311 8.63281 234.559 8.71094Z" fill="#0F4ABE"/>
</svg>
